<svg width="111" height="28" viewBox="0 0 111 28" fill="none" xmlns="http://www.w3.org/2000/svg">
<g clip-path="url(#clip0_1_2)">
<path d="M17.328 5.07C20.058 5.07 21.438 6.12 21.438 8.22V24H18.498V15.99H7.96805V24H5.02805V13.05H18.498V8.88C18.498 8.31 17.988 8.01 16.968 8.01H5.02805C5.02805 6.93 5.35805 6.18 6.04805 5.73C6.70805 5.31 7.75805 5.07 9.13805 5.07H17.328ZM27.4505 24H24.5105V16.2C24.5105 14.1 25.8605 13.02 28.6205 13.02H40.0205V15.96H28.9805C27.9605 15.96 27.4505 16.26 27.4505 16.86V24Z" fill="#E00000"/>
<path d="M43.0847 24H55.3847C58.1147 24 59.4947 22.95 59.4947 20.82V16.32C59.4947 16.02 59.3747 15.72 59.1647 15.42C58.9547 15.12 58.7747 14.88 58.5947 14.67L58.5047 14.55C58.7147 14.37 58.9247 14.1 59.1647 13.77C59.3747 13.44 59.4947 13.11 59.4947 12.75V8.25C59.4947 6.15 58.1147 5.07 55.3847 5.07H43.0847V8.01H55.0247C56.0447 8.01 56.5547 8.31 56.5547 8.91V12.27C56.5547 12.81 56.0447 13.05 55.0247 13.05H43.0847V24ZM46.0247 15.99H55.2347C56.1047 16.05 56.5547 16.32 56.5547 16.8V20.16C56.5547 20.76 56.0447 21.06 55.0247 21.06H46.0247V15.99ZM67.0071 24V21.06C65.9871 21.06 65.5071 20.79 65.5071 20.19V5.07H62.5671V20.85C62.5671 22.95 63.9171 24 66.6771 24H67.0071ZM74.5071 21.06C73.4871 21.06 73.0071 20.79 73.0071 20.19V16.86C73.0071 16.26 73.4871 15.96 74.5071 15.96H82.0071C83.0271 15.96 83.5371 16.26 83.5371 16.86V20.19C83.5371 20.79 83.0271 21.06 82.0071 21.06H74.5071ZM82.3671 24C85.0971 24 86.4771 22.95 86.4771 20.85V16.2C86.4771 14.1 85.0971 13.02 82.3671 13.02H74.1771C71.4171 13.02 70.0671 14.1 70.0671 16.2V20.85C70.0671 22.95 71.4171 24 74.1771 24H82.3671ZM105.96 28.83C105.96 30.96 104.58 32.01 101.85 32.01H97.8595V29.07H101.49C102.51 29.07 103.02 28.77 103.02 28.17V24H93.5095C90.8695 24 89.5495 22.98 89.5495 20.88V16.26C89.5495 14.16 90.8995 13.08 93.6595 13.08H105.96V16.02H94.0195C92.9995 16.02 92.4895 16.32 92.4895 16.92V20.28C92.4895 20.82 92.9995 21.06 94.0195 21.06H105.96V28.83Z" fill="black"/>
</g>
<defs>
<clipPath id="clip0_1_2">
<rect width="111" height="28" fill="white"/>
</clipPath>
</defs>
</svg>
